<svg height="86pt" preserveAspectRatio="xMidYMid meet" viewBox="0 0 85 86" width="85pt" xmlns="http://www.w3.org/2000/svg"><g transform="matrix(.1 0 0 -.1 0 86)"><path d="m351 826c-7-8-15-30-18-49-4-27-12-38-35-48-27-11-35-10-74 12l-44 23-45-44c-50-49-54-63-25-100 11-14 20-30 20-37 0-21-23-63-34-63-6 0-28-5-49-11l-38-10 3-72 3-71 40-11c53-13 62-20 69-50 5-18 0-35-14-55-28-39-26-48 22-97 47-48 62-51 98-23 14 11 30 20 37 20 21 0 63-23 63-34 0-6 5-28 11-48l10-38h63c71 0 81 7 91 61 5 25 14 40 31 48 34 15 45 14 74-9 37-29 51-25 100 25l44 45-23 44c-22 39-23 47-12 74 10 23 21 32 49 37 54 10 62 21 62 86 0 63-4 68-64 84-56 15-68 52-35 112l23 43-44 45c-49 50-63 54-100 25-29-23-40-24-74-8-18 8-28 22-32 47-4 20-11 42-17 49-14 17-121 16-136-2zm115-77c8-36 14-43 58-62l49-21 40 23 40 23 24-25 25-24-23-40-23-40 21-49c19-44 26-50 62-58 39-8 41-11 41-47s-2-38-41-46c-40-8-43-11-62-64l-20-57 23-32 23-32-26-25-25-26-36 22-36 22-52-19c-49-18-54-23-62-61-8-39-11-41-46-41-36 0-39 2-47 37-7 32-16 42-58 62l-50 23-39-22-39-22-24 25-25 24 22 39 22 39-23 50c-20 42-30 51-61 58-36 8-38 11-38 47 0 35 2 38 41 46 38 8 43 13 61 62l19 52-22 36-22 36 26 25 25 26 30-22c37-26 48-26 104-1 40 18 46 24 52 60 6 39 8 40 45 40s39-2 47-41z"/><path d="m319 630c-56-30-106-94-120-155-45-204 202-354 360-218 57 48 81 99 81 170-1 97-49 173-132 207-52 22-144 20-189-4zm168-35c50-21 72-42 94-90 51-111-21-241-140-253-66-6-113 12-155 58-80 89-51 231 58 281 50 23 95 24 143 4z"/><path d="m378 509c-16-16-28-35-28-42 0-24 31-56 58-59 39-4 29-22-15-28-42-6-53-33-15-38 12-2 22-8 22-13 0-18 30-9 60 18 17 14 30 36 30 48 0 29-30 55-64 55-41 0-27 24 18 30s48 19 10 42c-39 22-45 21-76-13z"/></g></svg>