<svg height="138pt" preserveAspectRatio="xMidYMid meet" viewBox="0 0 138 138" width="138pt" xmlns="http://www.w3.org/2000/svg"><g transform="matrix(.1 0 0 -.1 0 138)"><path d="m994 1333c-21-67-35-75-84-49-22 13-28 12-53-6-42-30-53-60-32-91 21-33 6-64-32-69-27-3-28-5-28-63s1-60 28-63c39-5 55-41 32-75-19-30-11-53 31-86 24-19 27-19 59-4 42 20 62 12 73-29 8-32 10-33 63-33 52 0 54 1 64 33 11 40 43 51 78 27 24-15 26-15 61 16 40 35 43 49 20 84-20 30-4 65 29 65 34 0 47 19 47 65s-13 65-47 65c-32 0-48 34-28 62 23 34 18 53-21 87-34 31-37 31-61 16-37-24-64-16-77 25-11 34-13 35-64 38-43 3-53 0-58-15zm83-54c8-42 63-67 108-50 23 9 32 8 43-3 12-12 12-17-1-37-14-22-14-28 0-62 12-28 23-39 44-44 41-8 41-48 1-56-21-4-33-16-46-45-17-37-17-41-2-64 23-34 3-52-40-37-44 16-99-10-107-51-9-42-43-42-52 1-10 42-63 68-107 51-45-17-64 0-42 37 15 25 15 30-3 67-14 29-25 40-46 42-21 3-27 9-27 27s6 24 28 27c20 2 32 13 46 42 18 37 18 42 3 67-14 25-14 29 0 40 11 10 19 10 34 1 10-7 26-12 34-12 31 0 73 30 83 60 14 40 41 39 49-1z"/><path d="m993 1175c-94-40-96-192-4-240 111-57 241 65 184 175-36 69-109 96-180 65zm92-39c77-33 74-133-5-166-39-16-85 1-105 41-27 50-11 98 39 123 38 19 30 19 71 2z"/><path d="m371 1066c-7-8-15-30-18-49-4-27-12-38-35-48-27-11-35-10-74 12l-44 23-45-44c-50-49-54-63-25-100 11-14 20-30 20-37 0-21-23-63-34-63-6 0-28-5-49-11l-38-10 3-72 3-71 40-11c53-13 62-20 69-50 5-18 0-35-14-55-28-39-26-48 22-97 47-48 62-51 98-23 14 11 30 20 37 20 21 0 63-23 63-34 0-6 5-28 11-48l10-38h63c71 0 81 7 91 61 5 25 14 40 31 48 34 15 45 14 74-9 37-29 51-25 100 25l44 45-23 44c-22 39-23 47-12 74 10 23 21 32 49 37 54 10 62 21 62 86 0 63-4 68-64 84-56 15-68 52-35 112l23 43-44 45c-49 50-63 54-100 25-29-23-40-24-74-8-18 8-28 22-32 47-4 20-11 42-17 49-14 17-121 16-136-2zm115-77c8-36 14-43 58-62l49-21 40 23 40 23 24-25 25-24-23-40-23-40 21-49c19-44 26-50 62-58 39-8 41-11 41-47s-2-38-41-46c-40-8-43-11-62-64l-20-57 23-32 23-32-26-25-25-26-36 22-36 22-52-19c-49-18-54-23-62-61-8-39-11-41-46-41-36 0-39 2-47 37-7 32-16 42-58 62l-50 23-39-22-39-22-24 25-25 24 22 39 22 39-23 50c-20 42-30 51-61 58-36 8-38 11-38 47 0 35 2 38 41 46 38 8 43 13 61 62l19 52-22 36-22 36 26 25 25 26 30-22c37-26 48-26 104-1 40 18 46 24 52 60 6 39 8 40 45 40s39-2 47-41z"/><path d="m339 870c-56-30-106-94-120-155-45-204 202-354 360-218 57 48 81 99 81 170-1 97-49 173-132 207-52 22-144 20-189-4zm168-35c50-21 72-42 94-90 51-111-21-241-140-253-66-6-113 12-155 58-80 89-51 231 58 281 50 23 95 24 143 4z"/><path d="m398 749c-16-16-28-35-28-42 0-24 31-56 58-59 39-4 29-22-15-28-42-6-53-33-15-38 12-2 22-8 22-13 0-18 30-9 60 18 17 14 30 36 30 48 0 29-30 55-64 55-41 0-27 24 18 30s48 19 10 42c-39 22-45 21-76-13z"/><path d="m990 594c-6-14-10-29-10-34 0-18-36-20-67-3l-33 18-37-38-38-37 18-33c22-41 15-62-26-74-31-8-32-11-35-65l-3-57 35-7c44-8 54-33 30-74l-18-30 34-35c36-38 55-42 83-21 28 22 56 8 63-30l6-34h59c58 0 60 1 66 30 8 43 34 54 71 33 28-16 31-16 56 1 41 26 53 60 32 91-20 30-7 65 24 65 29 0 50 28 50 68 0 47-8 58-46 66-37 8-49 36-28 63 21 28 17 47-21 83l-35 34-30-18c-41-24-66-14-74 29-7 35-7 35-62 35-49 0-55-2-64-26zm86-43c5-21 16-33 46-47 37-16 41-17 67-1 25 15 30 15 41 2 10-12 9-20-4-39-14-22-14-28 0-61 10-25 25-41 45-48 37-14 36-48-1-57-16-4-31-19-43-44-17-35-17-40-2-63 15-22 15-27 2-40s-17-13-38 1c-22 14-28 13-66-4-29-13-42-25-45-42-2-15-11-24-25-26-16-2-23 3-28 27-5 22-16 33-47 46-37 15-42 15-65-1-22-14-27-14-40-1s-13 18 2 41c17 25 17 29 0 65-13 29-25 40-46 45-41 8-39 40 2 52 42 12 69 73 49 109-10 19-11 27-1 39 11 14 16 13 37-1 23-15 28-14 65 2 30 14 42 26 46 47 8 39 41 38 49-1z"/><path d="m959 421c-34-34-39-44-39-86 0-61 24-100 77-126 110-53 222 52 178 167-21 55-65 84-130 84-42 0-52-5-86-39zm152-30c38-39 40-88 3-125s-86-35-125 3c-40 40-39 83 2 122 41 38 81 38 120 0z"/></g></svg>